<svg xmlns="http://www.w3.org/2000/svg" viewBox="0 0 120 120" role="img" aria-label="nous app icon">
  <title>Nous — app icon (hub and 8 nodes)</title>
  <rect x="2" y="2" width="116" height="116" rx="28" fill="#141414"/>
  <g stroke="#8A8A8A" stroke-width="1.8">
    <line x1="60" y1="60" x2="100" y2="60"/><line x1="60" y1="60" x2="88.3" y2="88.3"/>
    <line x1="60" y1="60" x2="60" y2="100"/><line x1="60" y1="60" x2="31.7" y2="88.3"/>
    <line x1="60" y1="60" x2="20" y2="60"/><line x1="60" y1="60" x2="31.7" y2="31.7"/>
    <line x1="60" y1="60" x2="60" y2="20"/><line x1="60" y1="60" x2="88.3" y2="31.7"/>
  </g>
  <g fill="#F5F3EF">
    <circle cx="100" cy="60" r="6"/><circle cx="88.3" cy="88.3" r="6"/><circle cx="60" cy="100" r="6"/><circle cx="31.7" cy="88.3" r="6"/>
    <circle cx="20" cy="60" r="6"/><circle cx="31.7" cy="31.7" r="6"/><circle cx="60" cy="20" r="6"/><circle cx="88.3" cy="31.7" r="6"/>
  </g>
  <circle cx="60" cy="60" r="13" fill="#D85A30"/>
</svg>
