<svg xmlns="http://www.w3.org/2000/svg" viewBox="0 0 24 24">
  <path d="M11.998 24c-.321 0-.641-.084-.922-.247l-2.936-1.737c-.438-.245-.224-.332-.08-.383.585-.203.703-.25 1.328-.604.065-.037.151-.023.218.017l2.256 1.339c.082.045.198.045.275 0l8.795-5.076c.082-.047.134-.141.134-.238V6.921c0-.099-.053-.19-.137-.24l-8.791-5.072c-.081-.047-.189-.047-.271 0L3.075 6.68c-.084.05-.139.143-.139.242v10.15c0 .097.055.189.137.236l2.409 1.392c1.307.654 2.108-.116 2.108-.891V7.787c0-.142.114-.253.256-.253h1.115c.139 0 .255.111.255.253v10.021c0 1.745-.95 2.745-2.604 2.745-.508 0-.909 0-2.026-.551L2.28 18.675c-.57-.329-.922-.943-.922-1.604V6.921c0-.661.352-1.275.922-1.603l8.795-5.082c.557-.315 1.296-.315 1.848 0l8.794 5.082c.57.329.924.943.924 1.603v10.15c0 .661-.354 1.275-.924 1.604l-8.794 5.076c-.28.164-.6.247-.925.247z" fill="#5FA04E"/>
</svg>
