<svg xmlns="http://www.w3.org/2000/svg" viewBox="0 0 24 24">
  <path d="M11.914 0C5.82 0 6.2 2.656 6.2 2.656l.007 2.752h5.814v.826H3.9S0 5.789 0 11.967c0 6.177 3.413 5.957 3.413 5.957h2.038v-2.867s-.11-3.413 3.355-3.413h5.784s3.248.052 3.248-3.14V3.202S18.388 0 11.914 0zm-3.22 1.856a1.044 1.044 0 1 1 0 2.087 1.043 1.043 0 0 1 0-2.087z" fill="#3776AB"/>
  <path d="M12.086 24c6.094 0 5.714-2.656 5.714-2.656l-.007-2.752H12v-.826h8.1S24 18.21 24 12.033c0-6.177-3.413-5.957-3.413-5.957h-2.038v2.867s.11 3.413-3.355 3.413H9.41S6.16 12.304 6.16 15.497v5.3S5.612 24 12.086 24zm3.22-1.856a1.044 1.044 0 1 1 0-2.087 1.043 1.043 0 0 1 0 2.087z" fill="#FFD43B"/>
</svg>
