<svg viewBox="0 0 420 260" fill="none" xmlns="http://www.w3.org/2000/svg">
  <defs>
    <pattern id="h-meeting-brief" width="7" height="7" patternUnits="userSpaceOnUse">
      <circle cx="1.5" cy="1.5" r=".85" fill="#a98d58" opacity=".2"/>
    </pattern>
  </defs>
  <g stroke="#e7cf94" stroke-width="1" opacity=".5" stroke-dasharray="2 5"><path d="M132 48 V212"/><path d="M338 48 V212"/></g>
  <g stroke="#bfa877" stroke-width="1.2" fill="#fff"><rect x="62" y="66" width="52" height="36" rx="6"/><rect x="62" y="112" width="52" height="36" rx="6"/><rect x="62" y="158" width="52" height="36" rx="6"/></g>
  <g stroke="#d3bd90" stroke-width="1.6" stroke-linecap="round"><line x1="72" y1="80" x2="102" y2="80"/><line x1="72" y1="90" x2="94" y2="90"/><line x1="72" y1="126" x2="102" y2="126"/><line x1="72" y1="136" x2="90" y2="136"/><line x1="72" y1="172" x2="102" y2="172"/><line x1="72" y1="182" x2="96" y2="182"/></g>
  <g fill="#E0912B"><circle cx="106" cy="74" r="2.6"/><circle cx="106" cy="120" r="2.6"/><circle cx="106" cy="166" r="2.6"/></g>
  <g stroke="#c9ad82" stroke-width="1.2" stroke-dasharray="3 4"><path d="M114 84 L172 110"/><path d="M114 130 L170 126"/><path d="M114 176 L176 142"/></g>
  <g stroke="#bfa877" stroke-width="1.4" fill="#fdfbf6" stroke-linejoin="round"><polygon points="248,62 314,96 248,130 182,96"/><path d="M182,96 L182,150 L248,184 L314,150 L314,96"/><path d="M248,130 L248,184"/></g>
  <polygon points="248,62 314,96 248,130 182,96" fill="url(#h-meeting-brief)"/>
  <path d="M182,96 L248,62 L314,96" stroke="#F0BE7A" stroke-width="1.3" fill="none" opacity=".85"/>
  <g stroke="#d3bd90" stroke-width="1.7" stroke-linecap="round" opacity=".9"><line x1="210" y1="96" x2="248" y2="77"/><line x1="222" y1="104" x2="264" y2="83"/><line x1="234" y1="112" x2="272" y2="93"/></g>
  <g fill="#E0912B" opacity=".85"><rect x="196" y="140" width="6" height="8" rx="1"/><rect x="208" y="146" width="6" height="8" rx="1"/><rect x="284" y="140" width="6" height="8" rx="1"/><rect x="272" y="146" width="6" height="8" rx="1"/></g>
  <circle cx="320" cy="66" r="15" fill="#FCF3E4" stroke="#E0912B" stroke-width="1.5"/>
  <path d="M320 58 V66.5 L326 70" stroke="#E0912B" stroke-width="1.7" fill="none" stroke-linecap="round"/>
  <rect x="216" y="196" width="64" height="15" rx="7" fill="#E0912B"/>
  <text x="248" y="207" text-anchor="middle" font-family="Inter,sans-serif" font-weight="700" font-size="8.5" fill="#fff">BRIEF</text>
</svg>
