<svg xmlns="http://www.w3.org/2000/svg" viewBox="0 0 26 26" fill="none">
  <path d="M22.9913 7.7644C23.4148 7.08496 23.4148 6.21112 22.9913 5.53553L20.4044 1.39536L20.1889 1.04697C19.802 0.429125 19.136 0.0595703 18.4046 0.0595703H12.5649C11.8354 0.0595703 11.1694 0.429125 10.7806 1.0489L0.323361 17.7847C0.113561 18.1196 0 18.5065 0 18.8992C0 19.2918 0.111636 19.6787 0.321436 20.0117L3.12582 24.5022C3.5127 25.1219 4.17866 25.4896 4.90815 25.4896H10.7479C11.4812 25.4896 12.1472 25.12 12.5321 24.5002L12.7458 24.1615L14.8342 20.8162L21.0127 10.9287L22.9875 7.76633L22.9913 7.7644ZM22.3812 6.64996C22.3812 6.86361 22.3215 7.07919 22.2002 7.26974L11.9566 23.6649C11.8643 23.8131 11.716 23.8304 11.6564 23.8304C11.5967 23.8304 11.4504 23.8131 11.3561 23.6649L8.7673 19.517C8.53248 19.1417 8.53248 18.6586 8.7673 18.2794L19.0109 1.8881C19.1033 1.73797 19.2515 1.72064 19.3112 1.72064C19.3708 1.72064 19.519 1.73797 19.6134 1.89002L22.2002 6.03019C22.3215 6.22074 22.3812 6.43632 22.3812 6.64996Z" fill="#000"/>
  <rect x="15.7" y="15.1" width="8.5" height="8.5" rx="2.5" transform="rotate(-59 19.95 19.35)" fill="#000"/>
</svg>
