<svg xmlns="http://www.w3.org/2000/svg" viewBox="0 0 24 24" fill="none">
  <path d="M2 6.5V17.5C2 18.3284 2.67157 19 3.5 19H5V8.455L12 13.5L19 8.455V19H20.5C21.3284 19 22 18.3284 22 17.5V6.5C22 5.17157 20.8284 4 19.5 4H19.175L12 9.545L4.825 4H4.5C3.17157 4 2 5.17157 2 6.5Z" fill="#EA4335"/>
  <path d="M5 19V8.455L12 13.5L19 8.455V19H5Z" fill="#FBBC05"/>
  <path d="M2 6.5V17.5C2 18.3284 2.67157 19 3.5 19H5V8.455L12 13.5V9.545L4.825 4H4.5C3.17157 4 2 5.17157 2 6.5Z" fill="#34A853"/>
  <path d="M19 8.455V19H20.5C21.3284 19 22 18.3284 22 17.5V6.5C22 5.17157 20.8284 4 19.5 4H19.175L12 9.545V13.5L19 8.455Z" fill="#4285F4"/>
  <path d="M19.175 4L12 9.545L4.825 4" fill="#C5221F"/>
</svg>
