<svg xmlns="http://www.w3.org/2000/svg" viewBox="0 0 512 512">
  <circle cx="256" cy="256" r="256" fill="#FF7A59"/>
  <path d="M348.3 134.4V93.8c18.6-8.8 31.4-27.7 31.4-49.8 0-30.3-24.5-54.7-54.7-54.7s-54.7 24.5-54.7 54.7c0 22.1 12.8 41 31.4 49.8v40.6c-27.9 7.8-48.4 33.5-48.4 63.9v8.9l-117.7 117.7c-5.4-1.9-11.1-3-17.1-3-28.1 0-50.9 22.8-50.9 50.9s22.8 50.9 50.9 50.9 50.9-22.8 50.9-50.9c0-6-1.1-11.8-3-17.1l117.7-117.7h8.9c30.4 0 56.1-20.5 63.9-48.4h40.6c8.8 18.6 27.7 31.4 49.8 31.4 30.3 0 54.7-24.5 54.7-54.7s-24.5-54.7-54.7-54.7c-22.1 0-41 12.8-49.8 31.4h-40.6c-7.8-27.9-33.5-48.4-63.9-48.4zm-23.3 77.9c-15 0-27.3-12.3-27.3-27.3s12.3-27.3 27.3-27.3 27.3 12.3 27.3 27.3-12.3 27.3-27.3 27.3z" fill="#FFF"/>
</svg>
