<svg width="36" height="36" viewBox="0 0 36 36" fill="none" xmlns="http://www.w3.org/2000/svg">
<path fill-rule="evenodd" clip-rule="evenodd" d="M36 18C36 27.9412 27.9412 36 18 36C8.05887 36 0 27.9412 0 18C0 8.05887 8.05887 0 18 0C27.9412 0 36 8.05887 36 18Z" fill="white"/>
<path fill-rule="evenodd" clip-rule="evenodd" d="M36 18C36 27.9412 27.9412 36 18 36C8.05887 36 0 27.9412 0 18C0 8.05887 8.05887 0 18 0C27.9412 0 36 8.05887 36 18ZM8.18404 20.6015H12.9634C13.1057 20.6015 13.2099 20.7348 13.176 20.8722L10.7061 30.8934C10.6535 31.1066 10.9122 31.2559 11.0704 31.1038L27.723 15.076C27.8652 14.9394 27.7686 14.6995 27.5714 14.6995H21.7258C21.5441 14.6995 21.4418 14.4911 21.5526 14.3469L27.0263 7.24741C27.1376 7.10328 27.0348 6.89483 26.8531 6.89483H15.6498L7.9939 20.2737C7.91033 20.4198 8.01596 20.6015 8.18404 20.6015Z" fill="#0281FF"/>
</svg>
