<svg xmlns="http://www.w3.org/2000/svg" viewBox="0 0 512 512">
  <circle cx="256" cy="256" r="256" fill="#FFE01B"/>
  <path d="M385.8 247.2c-2.6-23.5-13.3-44.5-30.3-59.8-3.7-3.3-7.6-6.4-11.7-9.2-4.5-3.1-9.2-5.9-14.1-8.4 3.8-8.6 6-18 6-28 0-37.4-30.3-67.7-67.7-67.7-18.7 0-35.6 7.5-47.9 19.7-12.3-12.2-29.2-19.7-47.9-19.7-37.4 0-67.7 30.3-67.7 67.7 0 10 2.2 19.4 6 28-4.9 2.5-9.6 5.3-14.1 8.4-4.1 2.8-8 5.9-11.7 9.2-17 15.3-27.7 36.3-30.3 59.8-2.7 24.4 3.1 48.8 16.6 68.6 11.7 17.2 28.2 30.3 47.5 37.8 19.7 7.7 41 10.2 61.8 7.3 20.8-2.9 40.4-11.2 56.7-24.1 16.3 12.9 35.9 21.2 56.7 24.1 20.8 2.9 42.1.4 61.8-7.3 19.3-7.5 35.8-20.6 47.5-37.8 13.5-19.8 19.3-44.2 16.6-68.6zm-213.6-86c0-20.9 17-37.9 37.9-37.9s37.9 17 37.9 37.9-17 37.9-37.9 37.9-37.9-17-37.9-37.9zm96.9 0c0-20.9 17-37.9 37.9-37.9s37.9 17 37.9 37.9-17 37.9-37.9 37.9-37.9-17-37.9-37.9z" fill="#241C15"/>
</svg>
